<svg width="32" height="32" viewBox="0 0 32 32" fill="none" xmlns="http://www.w3.org/2000/svg">
  <rect width="32" height="32" rx="4" fill="#15151E"/>
  <path d="M22.4 10.4C20.5333 8.53333 17.4667 8.53333 15.6 10.4L14.9333 11.0667C14.6667 11.3333 14.6667 11.6 14.9333 11.8667C15.2 12.1333 15.4667 12.1333 15.7333 11.8667L16.4 11.2C17.7333 9.86667 20.2667 9.86667 21.6 11.2C22.9333 12.5333 22.9333 15.0667 21.6 16.4L20.1333 17.8667C18.8 19.2 16.2667 19.2 14.9333 17.8667L14.2667 17.2C14 16.9333 13.7333 16.9333 13.4667 17.2C13.2 17.4667 13.2 17.7333 13.4667 18L14.1333 18.6667C16 20.5333 19.0667 20.5333 20.9333 18.6667L22.4 17.2C24.2667 15.3333 24.2667 12.2667 22.4 10.4Z" fill="#E10600"/>
  <path d="M18.1333 13.7333C18.1333 13.4667 17.8667 13.2 17.6 13.2H10.4C10.1333 13.2 9.86667 13.4667 9.86667 13.7333C9.86667 14 10.1333 14.2667 10.4 14.2667H16.5333L9.86667 20.9333C9.6 21.2 9.6 21.4667 9.86667 21.7333C10.1333 22 10.4 22 10.6667 21.7333L17.3333 15.0667V21.2C17.3333 21.4667 17.6 21.7333 17.8667 21.7333C18.1333 21.7333 18.4 21.4667 18.4 21.2V13.7333H18.1333Z" fill="#FFFFFF"/>
</svg>